[img]http://img716.imageshack.us/img716/387/smurfsd.jpg[/img]
[code]
Smurfs 2011 TS V2 READNFO XViD - IMAGiNE                                                                

Ripper ...........: IMAGiNE              IMDB Rating.......: 4.2/10                             
Video Codec.......: XViD                 Release Date......: 11/08/11

Audio Codec.......: MP3                  Theatre Date......: 29/07/11

Audio Bitrate.....: 128                  Runtime...........: 1h 32mn

Subtitles.........: NIL                  Language..........: ENGLISH

Resolution........: 720 x 368            IMDb URL..........: http://www.imdb.com/title/tt0472181/

DETAILS:


Video
ID                               : 0
Format                           : MPEG-4 Visual
Format profile                   : Advanced Simple@L5
Format settings, BVOP            : 2
Format settings, QPel            : No
Format settings, GMC             : No warppoints
Format settings, Matrix          : Default (H.263)
Codec ID                         : XVID
Codec ID/Hint                    : XviD
Duration                         : 1h 32mn
Bit rate                         : 1 985 Kbps
Width                            : 720 pixels
Height                           : 368 pixels
Display aspect ratio             : 1.957
Frame rate                       : 25.000 fps
Color space                      : YUV
Chroma subsampling               : 4:2:0
Bit depth                        : 8 bits
Scan type                        : Progressive
Compression mode                 : Lossy
Bits/(Pixel*Frame)               : 0.300
Stream size                      : 1.28 GiB (94%)
Writing library                  : XviD 1.1.0 Beta2 (UTC 2005-04-04)

Audio
ID                               : 1
Format                           : MPEG Audio
Format version                   : Version 1
Format profile                   : Layer 3
Mode                             : Joint stereo
Codec ID                         : 55
Codec ID/Hint                    : MP3
Duration                         : 1h 32mn
Bit rate mode                    : Constant
Bit rate                         : 128 Kbps
Channel(s)                       : 2 channels
Sampling rate                    : 44.1 KHz
Compression mode                 : Lossy
Stream size                      : 84.8 MiB (6%)
Alignment                        : Split accross interleaves
Interleave, duration             : 40 ms (1.00 video frame)
Interleave, preload duration     : 500 ms

Plot:
When the evil wizard Gargamel chases the tiny blue Smurfs out of their village, they tumble from their 

magical world and into ours.

SOURCES:
VIDEO: ........... Die.Schluempfe.TS.MD.German.XviD-FLOPPYDiSK Thanks Mate 
AUDIO: ........... Thanks Matey 

NOTES:
Ok here we have V2 of Smurfs 
Thanks to FLoppydisk for the video First we made a script to sharpen then made some adjustments to the 

colors.
The video is missing a few seconds in a few scenes, 2 seconds at 51:50,9 seconds or so missing at 

1:06:56,and finally about 8 seconds missing at 1:08:15............
Audio is LiNE we filtered synced and muxed to our encode 
[/code]
Screens:
[img]http://img195.imageshack.us/img195/7173/88350517.png[/img]
[img]http://img854.imageshack.us/img854/2497/94059287.png[/img]
[img]http://img98.imageshack.us/img98/567/22689405.png[/img]
[img]http://img62.imageshack.us/img62/2589/34005499.png[/img]
[img]http://img685.imageshack.us/img685/5010/38532296.png[/img]
[img]http://img690.imageshack.us/img690/2126/93472037.png[/img]